<svg id="Emoji_u1f4af" xmlns="http://www.w3.org/2000/svg" width="52.975" height="55.607" viewBox="0 0 52.975 55.607">
  <path id="Path_17" data-name="Path 17" d="M9.425,17.719a14.758,14.758,0,0,0,1.386-.622A119.237,119.237,0,0,0,7.412,33.6c-.291,1.973-.569,3.9-.715,5.87-.026.362-.071.733-.115,1.1a10.238,10.238,0,0,0,0,3.575A2.509,2.509,0,0,0,8.94,46.323a2.7,2.7,0,0,0,1.58-.556c1.39-.993,1.412-2.67,1.434-3.9,0-.252,0-.494.022-.724.128-1.84.344-3.769.662-5.905l.1-.662c1.064-7.141,2.163-14.525,5.446-20.9l.291-.565c1.125-2.141,2.666-5.076,1.7-7.781a2.507,2.507,0,0,0-2.4-1.664,2.8,2.8,0,0,0-1.395.384A6.575,6.575,0,0,0,14.6,5.819a8.282,8.282,0,0,1-.693.83,43.994,43.994,0,0,1-4.268,3.893c-.684.525-1.421,1.011-2.052,1.426-.1.066-.238.141-.4.23a9.569,9.569,0,0,0-.989.613c-.137.106-.291.207-.437.309-.794.538-2.123,1.434-1.7,3.213A2.369,2.369,0,0,0,6.358,18.1,6.229,6.229,0,0,0,9.425,17.719Z" transform="translate(-3.985 -2.492)"/>
  <path id="Path_18" data-name="Path 18" d="M32.347,31.48a7.437,7.437,0,0,0,4.692,3.858,6.085,6.085,0,0,0,1.77.269c5.769,0,9.917-8.108,11.025-11.228.437-1.223.794-2.388,1.086-3.509.022.291.049.578.088.869A8.953,8.953,0,0,0,54,27.53a8.423,8.423,0,0,0,4.211,1.739,15.024,15.024,0,0,0,1.889.119,9.388,9.388,0,0,0,2.979-.41A10.315,10.315,0,0,0,65.153,28a14.6,14.6,0,0,0,5.561-7.079c2.119-5.27,2.472-12.9-1.748-17.187a8.339,8.339,0,0,0-3.659-2.172c-.265-.075-.534-.128-.808-.181l-.291-.057a3.234,3.234,0,0,1-.335-.1c-.146-.049-.3-.1-.441-.137A2.805,2.805,0,0,0,62.743,1h0A5.84,5.84,0,0,0,61,1.344a6.569,6.569,0,0,1-.781.212,27.47,27.47,0,0,0-4.3,1.284c-.812.3-1.584.574-2.375.808a11.007,11.007,0,0,1-6.223.062l-.181-.044a3.287,3.287,0,0,0-1.792-.053,2.194,2.194,0,0,0-1.426.817l-.124.2-.044.088-.119.062c-4.559,2.489-8.355,7.384-10.685,13.775C32.047,21,30.2,27.173,32.347,31.48Zm4.409-6.409a23.218,23.218,0,0,1,5.486-12.53c1.24-1.474,2.119-2.22,2.617-2.22.2,0,.547.349.887,1.329a12.7,12.7,0,0,1,.234,6.638,19.962,19.962,0,0,1-.741,2.706,20.318,20.318,0,0,1-3.16,6.281,5.421,5.421,0,0,1-2.313,1.615c-1,.358-1.726.291-2.224-.256A4.909,4.909,0,0,1,36.756,25.072ZM57.368,14.364a15.256,15.256,0,0,1,1.982-4.087l.124-.181c.49-.728,1.624-2.432,2.317-2.728.247-.106.481-.2.7-.291h0a3.3,3.3,0,0,1,2.7,1.161c1.474,1.765,1.483,5.195,1.037,7.6-.764,4.158-2.648,6.691-5.76,7.733-1.231.41-2.083.269-2.688-.538C56.406,21.175,56.661,16.726,57.368,14.364Zm-5.711-2a15.653,15.653,0,0,0-.384-1.986,4.442,4.442,0,0,0-.159-.463,5.035,5.035,0,0,1,.662-.088,7.1,7.1,0,0,0,.772-.1c.256-.049.5-.106.719-.163a16.416,16.416,0,0,0-1.505,3.99C51.74,13.151,51.709,12.753,51.656,12.365Z" transform="translate(-19.272 -1)"/>
  <path id="Path_19" data-name="Path 19" d="M58.262,71.812l-1.461.225a127.477,127.477,0,0,0-22.567,5.332c-1.876.64-3.893,1.386-6.175,2.269-.172.066-.344.119-.516.172-.786.243-2.423.746-2.216,2.732a2.284,2.284,0,0,0,2.2,2.207h.115a3.689,3.689,0,0,0,1.214-.344c.141-.057.278-.119.4-.154.631-.168,1.3-.375,2.1-.653,7.331-2.525,14.689-4.815,21.865-6.8l2.273-.622c1.192-.327,2.388-.649,3.575-.984a1.672,1.672,0,0,0,1.245-1.854A1.775,1.775,0,0,0,58.262,71.812Z" transform="translate(-15.898 -40.546)"/>
  <path id="Path_20" data-name="Path 20" d="M56.982,81.517l-3.65.786c-7.15,1.536-14.547,3.125-21.689,5.288-4.55,1.377-8.924,3.032-13.757,4.9a53.106,53.106,0,0,0-6.634,3.226c-.154.088-.344.177-.547.269a4.271,4.271,0,0,0-2.48,2.105A2.691,2.691,0,0,0,9.717,101.3a2.556,2.556,0,0,0,1.1.265,2.91,2.91,0,0,0,1.351-.38c.34-.181.7-.34,1.055-.5.335-.15.671-.3.993-.463,9.414-4.709,19.614-8.081,28.428-10.871,2.759-.874,5.733-1.752,9.105-2.683l.538-.15c1.858-.516,3.721-1.028,5.579-1.554a1.717,1.717,0,0,0,1.262-1.929A1.773,1.773,0,0,0,56.982,81.517Z" transform="translate(-6.281 -45.956)"/>
</svg>
