<svg xmlns="http://www.w3.org/2000/svg" width="19.121" height="18.297" viewBox="0 0 19.121 18.297">
  <g id="Icon_feather-shopping-cart" data-name="Icon feather-shopping-cart" transform="translate(-1 -1)">
    <path id="Path_14" data-name="Path 14" d="M13.647,30.824A.824.824,0,1,1,12.824,30,.824.824,0,0,1,13.647,30.824Z" transform="translate(-4.734 -12.85)" fill="none" stroke="#000" stroke-linecap="round" stroke-linejoin="round" stroke-width="1"/>
    <path id="Path_15" data-name="Path 15" d="M30.147,30.824A.824.824,0,1,1,29.324,30,.824.824,0,0,1,30.147,30.824Z" transform="translate(-12.174 -12.85)" fill="none" stroke="#000" stroke-linecap="round" stroke-linejoin="round" stroke-width="1"/>
    <path id="Path_16" data-name="Path 16" d="M1.5,1.5H4.795L7,12.529A1.647,1.647,0,0,0,8.65,13.855h8.006A1.647,1.647,0,0,0,18.3,12.529l1.318-6.911h-14" fill="none" stroke="#000" stroke-linecap="round" stroke-linejoin="round" stroke-width="1"/>
  </g>
</svg>
