<svg xmlns="http://www.w3.org/2000/svg" width="260" height="31.19" viewBox="0 0 260 31.19">
  <g id="LOGO" transform="translate(-140 -49.551)">
    <path id="Path_1" data-name="Path 1" d="M1.75-4.677C3.136-4.763,3.916-4.85,5.3-4.85s2.209.087,3.6.173V-5.11c-1.43-.043-2.166-.433-2.166-1.17V-19.405h4.2c3.942,0,6.195,6.151,7.018,9.27C19.078-5.846,20.42-4.157,22.63-4.2a4.2,4.2,0,0,0,3.682-2.642l-.13-.65q-1.1,1.559-2.209,1.559a1.773,1.773,0,0,1-1.17-.52c-1.083-1-1.256-2.729-2.209-5.545-1-2.946-2.512-6.888-5.8-7.841,4.332-1.083,7.321-4.2,7.321-8.1,0-4.505-3.9-7.061-10.786-7.061-1.256,0-3.119.087-4.852.087-1.689,0-3.9-.043-4.722-.087v.433h.173c1.343,0,1.993.39,1.993,1.126V-6.28c0,.736-.736,1.126-2.166,1.17ZM6.732-20.055V-33.137A1.061,1.061,0,0,1,7.945-34.35h3.119c4.852,0,8.014,2.556,8.014,6.455a7.965,7.965,0,0,1-7.754,7.841Zm42.323,7.884c0,4.548-2.556,6.844-7.711,6.844H35.8c-1.43,0-2.123-.39-2.123-1.17V-20.142h6.758c.736,0,1.126,1,1.126,2.946v.217h.563c-.087-1.386-.173-2.123-.173-3.509,0-1.343.087-2.123.173-3.466H41.56v.217c0,1.949-.39,2.946-1.126,2.946H33.676V-32.184a1.926,1.926,0,0,1,2.166-2.166h4.722c5.155,0,7.711,1.993,7.711,5.978h.563c-.087-1.3-.173-2.036-.173-3.336s.087-1.993.173-3.292c-4.289,0-6.628.087-10.656.087S31.813-35,28.694-35v.433h.173c1.343,0,1.993.39,1.993,1.126V-6.28c0,.736-.736,1.126-2.166,1.17v.433c3.292,0,5.718-.087,10.007-.087h2.946l5.112.087H49.7c-.087-1.473-.173-2.253-.173-3.725s.087-2.3.173-3.769Zm4.332,7.494c.477-.043,1.343-.043,2.556-.087h3.509c2.253,0,4.635.087,6.238.087,6.325,0,10.656-3.336,10.656-8.187,0-3.985-2.946-7.061-7.667-7.927a6.894,6.894,0,0,0,5.5-7.148c0-4.9-3.466-7.061-11.22-7.061-1.256,0-3.119.087-4.852.087-1.689,0-3.9-.043-4.722-.087v.433h.173c1.343,0,1.993.39,1.993,1.126V-6.28c0,.736-.736,1.126-2.166,1.17Zm4.982-16.331V-33.051a1.149,1.149,0,0,1,1.3-1.3H62.7c5.588,0,8.49,2.166,8.49,6.368,0,3.942-2.6,6.974-6.065,6.974Zm6.758.65c4.678,0,8.187,3.292,8.187,7.624a7.374,7.374,0,0,1-7.624,7.408H60.317a1.723,1.723,0,0,1-1.949-1.949V-20.358Zm34.828,8.187c0,4.548-2.556,6.844-7.711,6.844H86.7c-1.43,0-2.123-.39-2.123-1.17V-20.142h6.758c.736,0,1.126,1,1.126,2.946v.217h.563c-.087-1.386-.173-2.123-.173-3.509,0-1.343.087-2.123.173-3.466H92.46v.217c0,1.949-.39,2.946-1.126,2.946H84.576V-32.184a1.926,1.926,0,0,1,2.166-2.166h4.722c5.155,0,7.711,1.993,7.711,5.978h.563c-.087-1.3-.173-2.036-.173-3.336s.087-1.993.173-3.292c-4.289,0-6.628.087-10.656.087S82.713-35,79.594-35v.433h.173c1.343,0,1.993.39,1.993,1.126V-6.28c0,.736-.736,1.126-2.166,1.17v.433c3.292,0,5.718-.087,10.007-.087h2.946l5.112.087H100.6c-.087-1.473-.173-2.253-.173-3.725s.087-2.3.173-3.769Zm24.692,0c0,4.548-2.556,6.844-7.711,6.844h-5.5c-1.43,0-2.166-.39-2.166-1.17V-33.441c0-.736.65-1.126,1.993-1.126h.173V-35c-1.386.087-2.166.173-3.552.173s-2.209-.087-3.6-.173v.433h.173c1.343,0,1.993.39,1.993,1.126V-6.28c0,.736-.736,1.126-2.166,1.17v.433c3.292,0,5.718-.087,10.007-.087h2.946l5.112.087H125.3a54.082,54.082,0,0,1,0-7.494Z" transform="translate(138.25 84.94)"/>
    <path id="Path_2" data-name="Path 2" d="M15.525-8.122h.823l10.916-25V-6.346c0,.736-.736,1.126-2.166,1.17v.433c1.386-.087,2.209-.173,3.6-.173s2.166.087,3.552.173v-.433c-1.43-.043-2.166-.433-2.166-1.17V-33.507c0-.736.65-1.126,1.993-1.126h.173v-.433c-1,.087-1.516.173-2.426.173a22.83,22.83,0,0,1-2.426-.173L17.128-11.5,6.818-35.067c-1,.087-1.6.173-2.469.173-1,0-1.6-.087-2.6-.173v.433h.173c1.343,0,1.993.39,1.993,1.126V-6.346c0,.736-.736,1.126-2.166,1.17v.433a25.322,25.322,0,0,1,2.556-.173c.866,0,1.43.087,2.426.173v-.433C5.3-5.22,4.566-5.61,4.566-6.346V-33.2ZM35.669-19.949c0,9.314,5.718,15.638,14.209,15.638s14.209-6.281,14.209-15.595c0-9.357-5.761-15.595-14.209-15.595C41.387-35.5,35.669-29.219,35.669-19.949Zm3.032-.087c0-8.924,4.462-14.815,11.22-14.815,6.714,0,11.133,5.891,11.133,14.858,0,9.01-4.462,15.032-11.133,15.032C43.206-4.96,38.7-11.025,38.7-20.035ZM89.557-4.744h.606V-33.507c0-.736.65-1.126,1.993-1.126h.173v-.433c-1,.087-1.559.173-2.513.173a24.5,24.5,0,0,1-2.469-.173v.433h.173c1.343,0,1.993.39,1.993,1.126V-9.942L72.923-35.067c-1.083.087-1.6.173-2.642.173s-1.646-.087-2.729-.173v.433h.173c1.343,0,1.993.39,1.993,1.126V-6.346c0,.736-.736,1.126-2.166,1.17v.433c1-.087,1.559-.173,2.512-.173a24.5,24.5,0,0,1,2.469.173v-.433c-1.43-.043-2.166-.433-2.166-1.17V-33.811Zm26.295-30.323-1.43.13c-.433,0-.866.043-1.43.043-1.083,0-1.733-.087-2.816-.173v.433c1.083,0,1.646.26,1.646.736a1.833,1.833,0,0,1-.477,1.04l-6.931,9.01a6.6,6.6,0,0,1-4.072,2.556V-33.507c0-.736.65-1.126,1.993-1.126h.173v-.433c-1.386.087-2.166.173-3.552.173s-2.209-.087-3.6-.173v.433h.173c1.343,0,1.993.39,1.993,1.126V-6.3c0,.736-.65,1.126-1.993,1.126h-.173v.433c1.386-.087,2.209-.173,3.6-.173s2.166.087,3.552.173v-.433h-.173c-1.343,0-1.993-.39-1.993-1.126V-20.468c2.686.13,3.855.823,5.112,2.816l6.758,10.7a2.2,2.2,0,0,1,.347.91c0,.563-.606.866-1.776.866v.433c1.6-.087,2.512-.173,4.115-.173s2.512.087,4.115.173V-5.22h-.13a3.605,3.605,0,0,1-3.292-1.733L105.066-23.587l7.1-9.27a4.477,4.477,0,0,1,3.682-1.776Z" transform="translate(280.986 85.051)"/>
  </g>
</svg>
